# xmcd CD database file
#
# Track frame offsets:
#	150
#	11452
#	20120
#	30700
#	41180
#	52222
#	65690
#	76487
#	87729
#	100690
#	112970
#	125525
#	135630
#	147477
#	160612
#
# Disc length: 2327 seconds
#
# Revision: 4
# Processed by: cddbd v1.5.2PL0 Copyright (c) Steve Scherf et al.
# Submitted via: CDex 1.51
#
DISCID=d409150f
DTITLE=Various Artist - Classic Country V12 1964-1968 D1/2
DYEAR=1999
DGENRE=Country
TTITLE0=Open Up Your Heart - Buck Owens
TTITLE1=England Swings - Roger Miller
TTITLE2=I Get The Fever - Bill Anderson
TTITLE3=The Bridge Washed Out - Warner Mack
TTITLE4=Then And Only Then - Connie Smith
TTITLE5=The Other Woman - Ray Price
TTITLE6=The Easy Part's Over - Charley Pride
TTITLE7=Begging To You - Marty Robbins
TTITLE8=Swinging Doors - Merle Haggard
TTITLE9=Understand Your Man - Johnny Cash
TTITLE10=Four Strong Winds - Bobby Bare
TTITLE11=You're The Only World I Know - Sonny James
TTITLE12=I Don't Wanna Play House - Tammy Wynette
TTITLE13=Things Have Gone To Pieces - George Jones
TTITLE14=This Is It - Jim Reeves
EXTD=YEAR: 1999
EXTT0=
EXTT1=
EXTT2=
EXTT3=
EXTT4=
EXTT5=
EXTT6=
EXTT7=
EXTT8=
EXTT9=
EXTT10=
EXTT11=
EXTT12=
EXTT13=
EXTT14=
PLAYORDER=
